<svg xmlns="http://www.w3.org/2000/svg" viewBox="0 0 40 40">
  <defs><clipPath id="c"><circle cx="20" cy="20" r="20"/></clipPath></defs>
  <g clip-path="url(#c)">
    <rect width="40" height="40" fill="#fff"/>
    <g fill="#b22234">
      <rect y="0" width="40" height="3.08"/><rect y="6.16" width="40" height="3.08"/>
      <rect y="12.32" width="40" height="3.08"/><rect y="18.48" width="40" height="3.08"/>
      <rect y="24.64" width="40" height="3.08"/><rect y="30.8" width="40" height="3.08"/>
      <rect y="36.96" width="40" height="3.08"/>
    </g>
    <rect width="20" height="21.56" fill="#3c3b6e"/>
    <g fill="#fff">
      <circle cx="3.4" cy="3.2" r="1.05"/><circle cx="8.6" cy="3.2" r="1.05"/><circle cx="13.8" cy="3.2" r="1.05"/>
      <circle cx="6" cy="6.7" r="1.05"/><circle cx="11.2" cy="6.7" r="1.05"/><circle cx="16.4" cy="6.7" r="1.05"/>
      <circle cx="3.4" cy="10.2" r="1.05"/><circle cx="8.6" cy="10.2" r="1.05"/><circle cx="13.8" cy="10.2" r="1.05"/>
      <circle cx="6" cy="13.7" r="1.05"/><circle cx="11.2" cy="13.7" r="1.05"/><circle cx="16.4" cy="13.7" r="1.05"/>
      <circle cx="3.4" cy="17.2" r="1.05"/><circle cx="8.6" cy="17.2" r="1.05"/><circle cx="13.8" cy="17.2" r="1.05"/>
    </g>
  </g>
</svg>
